<svg xmlns="http://www.w3.org/2000/svg" version="1.1" xmlns:xlink="http://www.w3.org/1999/xlink" xmlns:svgjs="http://svgjs.dev/svgjs" width="2000" height="525" viewBox="0 0 2000 525"><g transform="matrix(1,0,0,1,-1.2121212121212466,-2.360884517466843)"><svg viewBox="0 0 396 104" data-background-color="#ffffff" preserveAspectRatio="xMidYMid meet" height="525" width="2000" xmlns="http://www.w3.org/2000/svg" xmlns:xlink="http://www.w3.org/1999/xlink"><g id="tight-bounds" transform="matrix(1,0,0,1,0.2400000000000091,0.46767998060295213)"><svg viewBox="0 0 395.52 103.0644920501056" height="103.0644920501056" width="395.52"><g><svg viewBox="0 0 575.0707809942446 149.85178483017128" height="103.0644920501056" width="395.52"><g transform="matrix(1,0,0,1,179.5507809942447,43.47521957659994)"><svg viewBox="0 0 395.52 62.9013456769714" height="62.9013456769714" width="395.52"><g id="textblocktransform"><svg viewBox="0 0 395.52 62.9013456769714" height="62.9013456769714" width="395.52" id="textblock"><g><svg viewBox="0 0 395.52 62.9013456769714" height="62.9013456769714" width="395.52"><g transform="matrix(1,0,0,1,0,0)"><svg width="395.52" viewBox="0.75 -37.1 302.42 48.1" height="62.9013456769714" data-palette-color="#0074d9"><path d="M12.4-15.5L14.8-6.25 15.4-6.25 17.9-14.85 23.15-34.8 29.2-33.9 23.25-14.05 19.35-0.4 10.1 0.25 6.55-13.1 0.75-33.55 7.85-34.8 12.4-15.5ZM32.85-24.2L39.55-25.45 38.95-13 39.5-1.25 32.8 0 33.4-12.15 32.85-24.2ZM32.5-32.77Q32.5-34.45 33.8-35.77 35.1-37.1 36.8-37.1 38.5-37.1 39.4-36.18 40.3-35.25 40.3-33.4 40.3-31.55 39.02-30.23 37.75-28.9 36.07-28.9 34.4-28.9 33.45-30 32.5-31.1 32.5-32.77ZM52.6-4.65L52.6-4.65Q55.2-4.65 55.2-6.95L55.2-6.95Q55.2-7.75 54.07-8.45 52.95-9.15 51.32-9.85 49.7-10.55 48.07-11.43 46.45-12.3 45.32-13.85 44.2-15.4 44.2-17.4L44.2-17.4Q44.2-20.75 47.15-23.25 50.1-25.75 53.95-25.75L53.95-25.75Q55.75-25.75 57.47-25.33 59.2-24.9 60.8-24L60.8-24 57.45-17.9Q57.1-18.2 56.55-18.65 56-19.1 54.47-19.83 52.95-20.55 51.77-20.55 50.6-20.55 49.97-20.03 49.35-19.5 49.35-18.57 49.35-17.65 51.07-16.73 52.8-15.8 54.85-15.03 56.9-14.25 58.62-12.48 60.34-10.7 60.34-8.25L60.34-8.25Q60.34-4.75 57.47-2.1 54.6 0.55 50.85 0.55L50.85 0.55Q48.45 0.55 46.37-0.5 44.3-1.55 43.4-2.6L43.4-2.6 42.5-3.65 46.45-8.25Q46.75-7.85 47.3-7.25 47.85-6.65 49.47-5.65 51.1-4.65 52.6-4.65ZM69.74 0Q66.79 0 64.92-1.88 63.04-3.75 63.04-6.93 63.04-10.1 65.94-12.43 68.84-14.75 72.99-14.75L72.99-14.75 76.39-14.75 76.39-15.6Q76.39-18.05 75.39-18.95 74.39-19.85 71.64-19.85L71.64-19.85Q70.49-19.85 68.92-19.38 67.34-18.9 65.39-17.9L65.39-17.9 63.94-21.85Q66.09-23.35 69.17-24.55 72.24-25.75 74.24-25.75L74.24-25.75Q82.09-25.75 82.09-18.15L82.09-18.15 82.09-8.35Q82.09-5.55 83.84-2.1L83.84-2.1 78.54 0.15Q77.29-2.25 76.69-4.15L76.69-4.15Q73.94 0 69.74 0L69.74 0ZM71.84-5.1L71.84-5.1Q73.84-5.1 76.39-7.15L76.39-7.15 76.39-10.5Q73.74-11.1 72.09-11.1L72.09-11.1Q68.94-11.1 68.94-8.3L68.94-8.3Q68.94-6.85 69.74-5.98 70.54-5.1 71.84-5.1ZM86.44 4.95L86.44 4.95Q86.44 0.55 94.64-1.95L94.64-1.95Q92.69-2.95 92.69-4.55L92.69-4.55Q92.69-5.2 93.19-5.85 93.69-6.5 94.64-7.2L94.64-7.2 94.64-7.6Q91.04-7.6 88.92-9.6 86.79-11.6 86.79-14.95L86.79-14.95Q86.79-19.3 90.34-22.53 93.89-25.75 98.74-25.75L98.74-25.75Q99.99-25.75 102.39-25.25 104.79-24.75 107.09-24.75L107.09-24.75 110.94-24.75 110.44-20.4 106.69-20.85Q107.19-19.4 107.19-17.55 107.19-15.7 106.32-13.88 105.44-12.05 104.22-10.95 102.99-9.85 101.77-9.03 100.54-8.2 99.67-7.58 98.79-6.95 98.79-6.45L98.79-6.45Q98.79-5.5 100.79-4.8L100.79-4.8Q106.09-2.65 107.97-1.15 109.84 0.35 109.84 2.55L109.84 2.55Q109.84 6.25 106.12 8.63 102.39 11 97.24 11 92.09 11 89.27 9.35 86.44 7.7 86.44 4.95ZM101.54-16.05L101.54-16.05Q101.54-18.5 100.44-19.65 99.34-20.8 96.99-20.8L96.99-20.8Q92.44-20.8 92.44-16.32 92.44-11.85 97.29-11.85L97.29-11.85Q101.54-11.85 101.54-16.05ZM103.34 3.3L103.34 3.3Q103.34 2.4 102.39 1.63 101.44 0.85 98.99-0.2L98.99-0.2Q95.34 0.8 93.97 1.65 92.59 2.5 92.59 3.75 92.59 5 93.97 5.78 95.34 6.55 97.79 6.55 100.24 6.55 101.79 5.65 103.34 4.75 103.34 3.3ZM122.59-5.1L122.59-5.1Q124.04-5.1 125.64-5.85 127.24-6.6 128.14-7.35L128.14-7.35 129.04-8.1 131.34-5.3Q130.84-4.45 129.79-3.35 128.74-2.25 127.66-1.48 126.59-0.7 124.81-0.08 123.04 0.55 121.14 0.55L121.14 0.55Q117.09 0.55 114.54-2.53 111.99-5.6 111.99-10.45L111.99-10.45Q111.99-16.55 115.54-21.15 119.09-25.75 123.84-25.75L123.84-25.75Q127.49-25.75 129.51-23.7 131.54-21.65 131.54-17.95L131.54-17.95Q131.54-15.75 130.79-12.95L130.79-12.95 129.79-11.9 117.29-10.75Q118.14-5.1 122.59-5.1ZM122.59-20.6L122.59-20.6Q120.39-20.6 118.89-18.82 117.39-17.05 117.14-14.3L117.14-14.3 125.64-15.35Q125.79-16.5 125.79-17.25L125.79-17.25Q125.79-20.6 122.59-20.6ZM155.33 0.55L155.33 0.55Q149.78 0.55 145.98-4.1 142.18-8.75 142.18-15.5L142.18-15.5Q142.18-23.75 146.76-29.4 151.33-35.05 157.98-35.05L157.98-35.05Q160.58-35.05 162.81-34.52 165.03-34 165.98-33.45L165.98-33.45 166.88-32.9 163.48-25.95Q162.33-26.95 160.23-27.83 158.13-28.7 156.43-28.7L156.43-28.7Q152.98-28.7 150.91-25.85 148.83-23 148.83-17.73 148.83-12.45 150.98-9.08 153.13-5.7 156.83-5.7L156.83-5.7Q159.23-5.7 161.18-7.2 163.13-8.7 163.93-11.2L163.93-11.2 168.08-8.8Q166.43-4.4 163.03-1.93 159.63 0.55 155.33 0.55ZM169.63-10.45Q169.63-16.85 173.08-21.3 176.53-25.75 181.16-25.75 185.78-25.75 188.36-22.75 190.93-19.75 190.93-14.8L190.93-14.8Q190.93-8.2 187.61-3.83 184.28 0.55 179.23 0.55L179.23 0.55Q175.08 0.55 172.36-2.58 169.63-5.7 169.63-10.45L169.63-10.45ZM185.33-12.2L185.33-12.2Q185.33-19.45 180.38-19.45L180.38-19.45Q175.23-19.45 175.23-12.65L175.23-12.65Q175.23-9.1 176.68-7.1 178.13-5.1 180.51-5.1 182.88-5.1 184.11-6.93 185.33-8.75 185.33-12.2ZM209.73-12.65Q209.73-16.1 209.13-17.25 208.53-18.4 206.33-18.4 204.13-18.4 201.33-16.65L201.33-16.65 201.33-13 201.88-1.25 195.18 0 195.78-12.15Q195.58-18.85 194.68-24.15L194.68-24.15 200.73-25.45Q201.08-22.55 201.23-19.8L201.23-19.8Q201.98-20.8 202.93-21.78 203.88-22.75 205.93-23.98 207.98-25.2 210.25-25.2 212.53-25.2 214.08-23.43 215.63-21.65 215.63-18.6L215.63-18.6 215.33-13 215.88-1 209.13 0.25 209.73-12.65ZM235.88-12.65Q235.88-16.1 235.28-17.25 234.68-18.4 232.48-18.4 230.28-18.4 227.48-16.65L227.48-16.65 227.48-13 228.03-1.25 221.33 0 221.93-12.15Q221.73-18.85 220.83-24.15L220.83-24.15 226.88-25.45Q227.23-22.55 227.38-19.8L227.38-19.8Q228.13-20.8 229.08-21.78 230.03-22.75 232.08-23.98 234.13-25.2 236.4-25.2 238.68-25.2 240.23-23.43 241.78-21.65 241.78-18.6L241.78-18.6 241.48-13 242.03-1 235.28 0.25 235.88-12.65ZM256.52-5.1L256.52-5.1Q257.97-5.1 259.57-5.85 261.17-6.6 262.07-7.35L262.07-7.35 262.97-8.1 265.27-5.3Q264.77-4.45 263.72-3.35 262.67-2.25 261.6-1.48 260.52-0.7 258.75-0.08 256.97 0.55 255.07 0.55L255.07 0.55Q251.02 0.55 248.47-2.53 245.92-5.6 245.92-10.45L245.92-10.45Q245.92-16.55 249.47-21.15 253.02-25.75 257.77-25.75L257.77-25.75Q261.42-25.75 263.45-23.7 265.47-21.65 265.47-17.95L265.47-17.95Q265.47-15.75 264.72-12.95L264.72-12.95 263.72-11.9 251.22-10.75Q252.07-5.1 256.52-5.1ZM256.52-20.6L256.52-20.6Q254.32-20.6 252.82-18.82 251.32-17.05 251.07-14.3L251.07-14.3 259.57-15.35Q259.72-16.5 259.72-17.25L259.72-17.25Q259.72-20.6 256.52-20.6ZM278.42-19.25Q276.22-19.25 275.02-17.68 273.82-16.1 273.82-12.85 273.82-9.6 275.05-7.63 276.27-5.65 278.62-5.65L278.62-5.65Q279.82-5.65 280.97-6.4 282.12-7.15 282.72-7.9L282.72-7.9 283.27-8.7 285.77-6.1Q285.62-5.85 285.4-5.4 285.17-4.95 284.3-3.8 283.42-2.65 282.45-1.78 281.47-0.9 279.92-0.18 278.37 0.55 276.67 0.55L276.67 0.55Q272.92 0.55 270.57-2.5 268.22-5.55 268.22-10.45L268.22-10.45Q268.22-16.55 271.77-21.15 275.32-25.75 280.07-25.75L280.07-25.75Q281.52-25.75 282.97-25.33 284.42-24.9 285.92-24L285.92-24 282.42-17.85Q280.62-19.25 278.42-19.25ZM288.12-24.2L291.02-24.2 291.02-29.65 297.77-30.95 297.12-24.2 303.17-24.2 302.62-20.1 296.92-20.1 296.67-9.65Q296.67-7.3 297.12-6.53 297.57-5.75 298.77-5.75 299.97-5.75 301.97-6.3L301.97-6.3 302.27-2.75Q298.97 0 296.47 0 293.97 0 292.37-1.83 290.77-3.65 290.77-6.6L290.77-6.6 291.07-12.2 291.02-20.1 287.57-20.1 288.12-24.2Z" opacity="1" transform="matrix(1,0,0,1,0,0)" fill="#0074d9" class="wordmark-text-0" data-fill-palette-color="primary" id="text-0"></path></svg></g></svg></g></svg></g></svg></g><g><svg viewBox="0 0 149.85178483017128 149.85178483017128" height="149.85178483017128" width="149.85178483017128"><g><svg></svg></g><g id="icon-0"><svg viewBox="0 0 149.85178483017128 149.85178483017128" height="149.85178483017128" width="149.85178483017128"><g><path d="M0 74.926c0-41.38 33.545-74.926 74.926-74.926 41.38 0 74.926 33.545 74.926 74.926 0 41.38-33.545 74.926-74.926 74.926-41.38 0-74.926-33.545-74.926-74.926zM74.926 144.179c38.248 0 69.253-31.006 69.253-69.253 0-38.248-31.006-69.253-69.253-69.253-38.248 0-69.253 31.006-69.253 69.253 0 38.248 31.006 69.253 69.253 69.253z" data-fill-palette-color="accent" fill="#0074d9" stroke="transparent"></path></g><g transform="matrix(1,0,0,1,34.5983291840726,34.59830847362886)"><svg viewBox="0 0 80.65512646202609 80.65516788291356" height="80.65516788291356" width="80.65512646202609"><g><svg xmlns="http://www.w3.org/2000/svg" xmlns:xlink="http://www.w3.org/1999/xlink" version="1.1" x="0" y="0" viewBox="4.999802624769675 4.999500000000001 90.00069737523032 90.00074359558756" enable-background="new 0 0 100 100" xml:space="preserve" height="80.65516788291356" width="80.65512646202609" class="icon-dxe-0" data-fill-palette-color="accent" id="dxe-0"><g fill="#0074d9" data-fill-palette-color="accent"><path d="M5.316 94.538L9.122 68.845C1.46 52.219 4.479 31.881 18.18 18.18 35.754 0.606 64.246 0.606 81.82 18.18S99.394 64.246 81.82 81.82C67.936 95.704 47.237 98.619 30.492 90.565zM23.799 49.684A5.774 5.774 0 1 0 35.347 49.684 5.774 5.774 0 0 0 23.799 49.684M44.361 49.684A5.774 5.774 0 1 0 55.909 49.684 5.774 5.774 0 0 0 44.36 49.684M64.923 49.684A5.774 5.774 0 1 0 76.471 49.684 5.774 5.774 0 0 0 64.923 49.684" fill="#0074d9" data-fill-palette-color="accent"></path></g></svg></g></svg></g></svg></g></svg></g></svg></g><defs></defs></svg><rect width="395.52" height="103.0644920501056" fill="none" stroke="none" visibility="hidden"></rect></g></svg></g></svg>